<mxfile host="app.diagrams.net" modified="2022-04-15T17:19:42.911Z" agent="5.0 (Windows NT 10.0; Win64; x64) AppleWebKit/537.36 (KHTML, like Gecko) Chrome/98.0.4758.102 Safari/537.36" etag="MzqEVCQnkRvDB2p1Awpy" version="17.4.4" type="github">
  <diagram id="hTz190bk3s1_CpM7HC0W" name="Page-1">
    <mxGraphModel dx="1038" dy="544" grid="1" gridSize="10" guides="1" tooltips="1" connect="1" arrows="1" fold="1" page="1" pageScale="1" pageWidth="827" pageHeight="1169" math="0" shadow="0">
      <root>
        <mxCell id="0" />
        <mxCell id="1" parent="0" />
        <mxCell id="MXJ_lkBCTQzSXtX3pdmt-1" value="Conceptual Model" style="rounded=0;whiteSpace=wrap;html=1;" vertex="1" parent="1">
          <mxGeometry width="120" height="30" as="geometry" />
        </mxCell>
        <mxCell id="MXJ_lkBCTQzSXtX3pdmt-2" value="Movie" style="swimlane;childLayout=stackLayout;horizontal=1;startSize=30;horizontalStack=0;rounded=1;fontSize=14;fontStyle=0;strokeWidth=2;resizeParent=0;resizeLast=1;shadow=0;dashed=0;align=center;" vertex="1" parent="1">
          <mxGeometry x="600" y="30" width="160" height="120" as="geometry" />
        </mxCell>
        <mxCell id="MXJ_lkBCTQzSXtX3pdmt-3" value="movieID&#xa;name&#xa;barcode&#xa;dailyRentalRate" style="align=left;strokeColor=none;fillColor=none;spacingLeft=4;fontSize=12;verticalAlign=top;resizable=0;rotatable=0;part=1;" vertex="1" parent="MXJ_lkBCTQzSXtX3pdmt-2">
          <mxGeometry y="30" width="160" height="90" as="geometry" />
        </mxCell>
        <mxCell id="MXJ_lkBCTQzSXtX3pdmt-4" value="Stock" style="swimlane;childLayout=stackLayout;horizontal=1;startSize=30;horizontalStack=0;rounded=1;fontSize=14;fontStyle=0;strokeWidth=2;resizeParent=0;resizeLast=1;shadow=0;dashed=0;align=center;" vertex="1" parent="1">
          <mxGeometry x="600" y="190" width="160" height="130" as="geometry" />
        </mxCell>
        <mxCell id="MXJ_lkBCTQzSXtX3pdmt-5" value="stockID&#xa;status" style="align=left;strokeColor=none;fillColor=none;spacingLeft=4;fontSize=12;verticalAlign=top;resizable=0;rotatable=0;part=1;" vertex="1" parent="MXJ_lkBCTQzSXtX3pdmt-4">
          <mxGeometry y="30" width="160" height="100" as="geometry" />
        </mxCell>
        <mxCell id="MXJ_lkBCTQzSXtX3pdmt-7" value="Customer" style="swimlane;childLayout=stackLayout;horizontal=1;startSize=30;horizontalStack=0;rounded=1;fontSize=14;fontStyle=0;strokeWidth=2;resizeParent=0;resizeLast=1;shadow=0;dashed=0;align=center;" vertex="1" parent="1">
          <mxGeometry x="50" y="190" width="160" height="130" as="geometry" />
        </mxCell>
        <mxCell id="MXJ_lkBCTQzSXtX3pdmt-8" value="customerID&#xa;firstName&#xa;lastName&#xa;phoneNumber&#xa;email" style="align=left;strokeColor=none;fillColor=none;spacingLeft=4;fontSize=12;verticalAlign=top;resizable=0;rotatable=0;part=1;" vertex="1" parent="MXJ_lkBCTQzSXtX3pdmt-7">
          <mxGeometry y="30" width="160" height="100" as="geometry" />
        </mxCell>
        <mxCell id="MXJ_lkBCTQzSXtX3pdmt-9" value="rental record" style="swimlane;childLayout=stackLayout;horizontal=1;startSize=30;horizontalStack=0;rounded=1;fontSize=14;fontStyle=0;strokeWidth=2;resizeParent=0;resizeLast=1;shadow=0;dashed=0;align=center;" vertex="1" parent="1">
          <mxGeometry x="334" y="190" width="160" height="130" as="geometry" />
        </mxCell>
        <mxCell id="MXJ_lkBCTQzSXtX3pdmt-10" value="rentalID&#xa;rentDate&#xa;returnDate&#xa;dayCount&#xa;coupon&#xa;charge" style="align=left;strokeColor=none;fillColor=none;spacingLeft=4;fontSize=12;verticalAlign=top;resizable=0;rotatable=0;part=1;" vertex="1" parent="MXJ_lkBCTQzSXtX3pdmt-9">
          <mxGeometry y="30" width="160" height="100" as="geometry" />
        </mxCell>
        <mxCell id="MXJ_lkBCTQzSXtX3pdmt-15" value="" style="fontSize=12;html=1;endArrow=ERoneToMany;rounded=0;exitX=0.5;exitY=1;exitDx=0;exitDy=0;entryX=0.5;entryY=0;entryDx=0;entryDy=0;" edge="1" parent="1" source="MXJ_lkBCTQzSXtX3pdmt-3" target="MXJ_lkBCTQzSXtX3pdmt-4">
          <mxGeometry width="100" height="100" relative="1" as="geometry">
            <mxPoint x="640" y="260" as="sourcePoint" />
            <mxPoint x="680" y="190" as="targetPoint" />
          </mxGeometry>
        </mxCell>
        <mxCell id="MXJ_lkBCTQzSXtX3pdmt-16" value="" style="edgeStyle=entityRelationEdgeStyle;fontSize=12;html=1;endArrow=ERoneToMany;rounded=0;exitX=1.005;exitY=0.4;exitDx=0;exitDy=0;exitPerimeter=0;entryX=0.008;entryY=0.4;entryDx=0;entryDy=0;entryPerimeter=0;" edge="1" parent="1" source="MXJ_lkBCTQzSXtX3pdmt-10" target="MXJ_lkBCTQzSXtX3pdmt-5">
          <mxGeometry width="100" height="100" relative="1" as="geometry">
            <mxPoint x="500" y="320" as="sourcePoint" />
            <mxPoint x="600" y="220" as="targetPoint" />
          </mxGeometry>
        </mxCell>
        <mxCell id="MXJ_lkBCTQzSXtX3pdmt-18" value="" style="edgeStyle=entityRelationEdgeStyle;fontSize=12;html=1;endArrow=ERoneToMany;rounded=0;exitX=1;exitY=0.5;exitDx=0;exitDy=0;entryX=0;entryY=0.5;entryDx=0;entryDy=0;" edge="1" parent="1" source="MXJ_lkBCTQzSXtX3pdmt-8" target="MXJ_lkBCTQzSXtX3pdmt-10">
          <mxGeometry width="100" height="100" relative="1" as="geometry">
            <mxPoint x="220" y="320" as="sourcePoint" />
            <mxPoint x="320" y="220" as="targetPoint" />
          </mxGeometry>
        </mxCell>
      </root>
    </mxGraphModel>
  </diagram>
</mxfile>
